<?xml version="1.0" standalone="no"?>
<!DOCTYPE svg PUBLIC "-//W3C//DTD SVG 20010904//EN"
 "http://www.w3.org/TR/2001/REC-SVG-20010904/DTD/svg10.dtd">
<svg version="1.0" xmlns="http://www.w3.org/2000/svg"
 width="512.000000pt" height="512.000000pt" viewBox="0 0 512.000000 512.000000"
 preserveAspectRatio="xMidYMid meet">
<metadata>
Created by potrace 1.14, written by Peter Selinger 2001-2017
</metadata>
<g transform="translate(0.000000,512.000000) scale(0.100000,-0.100000)"
fill="#000000" stroke="none">
<path d="M1535 5020 c-130 -34 -236 -92 -322 -175 -30 -30 -73 -57 -118 -76
-139 -58 -233 -164 -280 -317 -14 -44 -14 -254 0 -337 6 -39 5 -41 -42 -77
-324 -247 -558 -610 -648 -1003 -16 -71 -19 -84 -35 -210 -11 -85 -10 -284 1
-380 15 -123 20 -148 44 -245 98 -394 325 -734 647 -973 153 -113 169 -107
-302 -107 l-400 0 0 -80 0 -80 400 0 399 0 3 -72 3 -71 100 -27 c84 -22 102
-30 115 -53 11 -20 12 -31 4 -44 -6 -10 -26 -45 -44 -78 -18 -33 -36 -64 -41
-70 -5 -5 -9 -14 -9 -20 0 -15 300 -315 315 -315 6 0 15 4 21 9 5 5 36 23 69
41 33 18 68 38 78 44 25 16 69 -12 78 -49 4 -17 16 -61 26 -100 l19 -70 224 0
223 0 26 100 c22 85 30 102 54 115 25 14 30 13 60 -4 17 -10 52 -30 77 -44 25
-13 50 -29 57 -34 7 -6 17 -8 23 -6 15 5 310 300 310 310 0 4 -23 46 -50 92
-39 66 -49 91 -44 111 8 33 13 36 124 66 l95 26 3 71 3 72 581 0 c320 0 579
-2 577 -4 -2 -3 -77 -79 -166 -169 -90 -90 -163 -167 -163 -171 0 -10 97 -106
107 -106 4 0 127 119 273 265 l265 265 -269 269 -269 269 -53 -55 c-30 -30
-54 -58 -54 -61 0 -4 75 -82 167 -174 l168 -168 -583 0 c-562 0 -582 1 -582
19 0 11 18 30 43 46 221 146 456 416 570 656 69 146 91 204 131 349 62 230 71
555 21 799 -58 284 -202 579 -390 798 -47 55 -173 174 -236 225 l-79 63 6 55
c10 97 13 133 13 203 l1 67 342 0 343 0 -91 -92 -91 -93 57 -56 58 -57 188
189 189 189 -189 189 -189 189 -53 -55 c-30 -30 -54 -58 -54 -61 0 -4 39 -46
87 -94 l88 -88 -361 0 -361 0 -21 51 c-76 182 -248 337 -442 397 -75 24 -106
26 -435 28 -303 2 -348 1 -410 -16z m1435 -1250 c36 -36 83 -88 105 -115 22
-28 42 -52 45 -55 7 -6 81 -118 96 -145 84 -148 142 -294 177 -440 15 -60 31
-146 36 -190 9 -82 7 -366 -3 -420 -4 -16 -11 -50 -16 -75 -5 -25 -12 -56 -14
-70 -28 -154 -160 -445 -251 -555 l-24 -30 -1 90 c-2 202 -16 297 -66 435
-118 331 -422 593 -762 660 -59 12 -62 14 -71 49 -22 87 -22 89 -2 96 32 10
134 79 174 118 72 71 157 232 157 299 0 10 8 18 18 19 102 4 203 60 259 144
49 73 65 193 37 270 -7 20 -7 20 16 0 14 -11 54 -49 90 -85z m-2159 67 c-11
-27 -8 -142 4 -172 47 -125 142 -205 263 -221 50 -6 51 -7 57 -48 4 -22 25
-78 46 -123 49 -99 132 -187 227 -240 37 -20 68 -37 69 -37 1 -1 -3 -22 -8
-46 -6 -25 -12 -51 -13 -59 -2 -9 -35 -23 -92 -37 -232 -57 -414 -170 -558
-344 -103 -124 -182 -275 -212 -405 -26 -109 -32 -161 -33 -304 -1 -145 0
-144 -83 -11 -96 153 -171 347 -209 539 -23 117 -34 392 -19 491 5 30 11 71
14 90 37 243 160 517 322 722 60 75 211 228 225 228 5 0 4 -11 0 -23z m299
-2168 c0 -4 -22 -27 -50 -53 -27 -26 -50 -51 -50 -56 0 -5 22 -47 50 -94 40
-69 49 -90 44 -115 -6 -26 -13 -32 -59 -46 -29 -8 -58 -15 -64 -15 -42 0 -290
211 -375 320 -25 32 -44 59 -41 61 6 7 545 4 545 -2z m2000 -4 c0 -12 -105
-137 -157 -186 -46 -43 -177 -148 -217 -173 -26 -17 -34 -17 -82 -6 -51 12
-84 40 -84 70 0 6 23 49 50 96 28 47 50 88 50 93 0 4 -22 30 -50 57 -35 35
-46 50 -35 54 27 10 525 4 525 -5z m-1181 -318 c205 -61 293 -300 177 -481
-74 -115 -224 -170 -361 -131 -76 21 -153 89 -196 173 -33 65 -33 196 -1 262
25 52 73 108 117 137 69 46 183 63 264 40z"/>
<path d="M4352 5025 c-260 -59 -450 -319 -428 -586 11 -134 41 -203 156 -359
l78 -105 4 -105 c5 -115 17 -147 70 -199 55 -54 91 -65 226 -69 153 -5 196 6
262 65 61 55 80 107 80 221 l0 85 80 107 c44 59 93 136 109 171 123 275 6 598
-264 729 -122 59 -245 74 -373 45z"/>
</g>
</svg>
