<?xml version="1.0" standalone="no"?>
<!DOCTYPE svg PUBLIC "-//W3C//DTD SVG 20010904//EN"
 "http://www.w3.org/TR/2001/REC-SVG-20010904/DTD/svg10.dtd">
<svg version="1.0" xmlns="http://www.w3.org/2000/svg"
 width="421.000000pt" height="421.000000pt" viewBox="0 0 421.000000 421.000000"
 preserveAspectRatio="xMidYMid meet">
<metadata>
Created by potrace 1.14, written by Peter Selinger 2001-2017
</metadata>
<g transform="translate(0.000000,421.000000) scale(0.100000,-0.100000)"
fill="#000000" stroke="none">
<path d="M1210 4043 c-23 -10 -41 -31 -46 -55 -9 -45 -14 -77 -20 -119 -3 -24
-8 -55 -10 -69 -2 -14 -6 -59 -9 -100 -3 -41 -8 -88 -10 -105 -2 -16 -7 -68
-11 -115 -12 -151 -16 -100 -8 105 10 274 10 287 -5 322 -13 32 -34 43 -87 43
-59 0 -67 -22 -79 -220 -3 -58 -8 -121 -10 -140 -3 -19 -6 -83 -7 -142 -1 -60
-5 -108 -9 -108 -5 0 -8 65 -8 144 -1 187 -11 212 -84 221 -46 6 -80 -20 -84
-66 -4 -50 -3 -278 1 -404 10 -252 34 -367 97 -460 l27 -40 -28 -25 c-20 -17
-39 -53 -59 -112 -17 -49 -28 -88 -24 -88 3 0 0 -7 -7 -15 -7 -8 -9 -15 -5
-15 4 0 3 -6 -3 -12 -6 -7 -10 -15 -10 -18 0 -3 -6 -25 -13 -50 -7 -25 -13
-47 -14 -50 -1 -3 -14 -45 -29 -95 -15 -49 -29 -96 -31 -105 -2 -8 -8 -26 -13
-40 -5 -14 -10 -28 -11 -32 0 -5 -1 -9 -2 -10 0 -2 -2 -10 -4 -18 -2 -8 -13
-49 -24 -90 -11 -41 -22 -95 -26 -120 -3 -25 -8 -52 -10 -60 -2 -8 -6 -37 -10
-65 -7 -55 -14 -106 -21 -139 -2 -11 -6 -34 -9 -51 -3 -16 -8 -43 -11 -60 -3
-16 -7 -79 -9 -140 -3 -106 -2 -115 35 -228 64 -193 182 -418 262 -498 13 -13
35 -40 48 -59 14 -19 30 -42 37 -50 48 -59 73 -94 73 -103 0 -5 14 -38 31 -73
l32 -64 1234 0 1234 0 -7 23 c-4 12 -37 85 -74 162 -63 132 -111 202 -131 189
-5 -3 -9 0 -9 5 0 6 -5 11 -10 11 -6 0 -38 13 -73 29 -57 27 -95 42 -107 43
-3 0 -14 5 -25 11 -11 6 -22 12 -25 12 -3 0 -14 6 -25 12 -11 6 -24 12 -30 13
-5 1 -21 7 -35 12 -14 6 -29 11 -35 12 -5 2 -17 6 -25 9 -27 10 -95 31 -103
32 -15 0 -102 92 -121 127 l-20 36 39 34 c116 101 210 209 221 256 4 12 10 22
15 22 5 0 9 6 9 13 0 7 9 29 20 50 11 20 17 37 14 37 -8 0 45 72 60 82 6 4 27
5 47 2 32 -5 39 -2 57 23 24 34 48 103 57 163 4 25 9 48 11 51 2 4 7 45 10 92
7 94 -5 148 -38 171 -16 12 -19 21 -13 43 13 51 24 100 31 137 2 16 6 32 8 35
2 3 7 33 10 66 9 78 16 130 25 181 10 51 5 151 -9 204 -34 125 -128 291 -212
372 -34 33 -88 69 -103 68 -84 -3 -93 0 -117 37 -12 20 -32 54 -44 76 -19 38
-54 66 -83 67 -8 0 -37 15 -65 33 -79 52 -152 71 -249 64 -45 -3 -134 -8 -197
-11 -186 -7 -319 -51 -485 -161 -46 -30 -77 -44 -90 -41 -11 3 -25 6 -30 6
-20 0 -46 60 -47 107 -1 27 2 68 6 93 9 51 11 67 20 130 3 25 9 56 12 70 8 38
12 61 18 103 3 20 8 52 11 70 17 111 10 148 -34 167 -63 26 -114 -9 -126 -88
-4 -24 -8 -54 -11 -65 -2 -12 -7 -37 -10 -56 -3 -18 -8 -43 -10 -55 -5 -23 -9
-50 -19 -116 -4 -25 -10 -54 -12 -65 -3 -11 -5 -28 -5 -37 1 -10 -3 -20 -8
-23 -9 -6 -6 128 5 205 7 55 15 120 21 179 3 30 7 58 10 62 11 18 5 147 -7
167 -20 32 -73 49 -109 35z m92 -2022 c3 -24 1 -29 -14 -28 -11 1 -16 7 -13
15 3 7 5 23 5 33 0 30 17 14 22 -20z m-8 -488 c23 -45 41 -56 81 -49 31 6 40
3 63 -22 15 -16 36 -47 47 -68 51 -101 123 -213 162 -255 43 -46 51 -73 30
-106 -9 -14 -20 -12 -77 14 -44 20 -80 35 -90 37 -3 1 -9 4 -15 7 -8 5 -58 20
-75 23 -9 2 -200 193 -229 230 -28 35 -29 38 -16 80 8 24 16 61 19 81 4 21 8
40 10 44 7 11 19 92 21 146 2 28 3 55 5 60 1 6 12 -36 25 -91 13 -56 30 -115
39 -131z"/>
</g>
</svg>
